<svg xmlns="http://www.w3.org/2000/svg" space="preserve" width="52.951" height="24.951" style="shape-rendering:geometricPrecision;text-rendering:geometricPrecision;image-rendering:optimizeQuality;fill-rule:evenodd;clip-rule:evenodd" viewBox="0 0 205.89 97.01" id="svg606615221_954"><path d="M48.51 0C75.3 0 97.02 21.72 97.02 48.51S75.3 97.02 48.51 97.02 0 75.3 0 48.51 21.72 0 48.51 0zm108.87 0c26.79 0 48.51 21.72 48.51 48.51s-21.72 48.51-48.51 48.51-48.51-21.72-48.51-48.51S130.59 0 157.38 0zm-13.27 51.94 9.41 9.88c1.39 1.45 1.76 3.47 1 5.33-3.2 7.78-8.26 12.45-13.68 12.45-9.44 0-17.09-13.92-17.09-31.09s7.65-31.09 17.09-31.09c5.42 0 10.48 4.67 13.68 12.45.77 1.86.39 3.87-1 5.33l-9.41 9.88a4.972 4.972 0 0 0 0 6.86zm-75.53 0 9.41 9.88c1.39 1.45 1.76 3.47 1 5.33-3.2 7.78-8.26 12.45-13.68 12.45-9.44 0-17.09-13.92-17.09-31.09s7.65-31.09 17.09-31.09c5.42 0 10.48 4.67 13.68 12.45.77 1.86.39 3.87-1 5.33l-9.41 9.88a4.972 4.972 0 0 0 0 6.86z" style="fill:#1a1a1a"/></svg>