<svg width="32" height="32" viewBox="0 0 32 32" fill="none" xmlns="http://www.w3.org/2000/svg" id="svg1611639332_1376">
<path fill-rule="evenodd" clip-rule="evenodd" d="M16 0C24.8365 0 32 7.16355 32 16C32 24.8365 24.8365 32 16 32C7.16347 32 0 24.8365 0 16C0 7.16347 7.16355 0 16 0ZM17.0498 7.85731L18.9011 11.1519C19.0792 11.4689 19.3578 11.6713 19.7143 11.7428L23.4199 12.4854C23.8583 12.5732 24.1904 12.8687 24.3285 13.2939C24.4667 13.7191 24.3717 14.1534 24.0687 14.4822L21.5074 17.2608C21.261 17.5282 21.1546 17.8556 21.1968 18.2168L21.6357 21.9705C21.6876 22.4146 21.5091 22.8218 21.1475 23.0846C20.7857 23.3474 20.3433 23.3913 19.9371 23.2047L16.5028 21.6273C16.1724 21.4755 15.8281 21.4755 15.4977 21.6273L12.0634 23.2047C11.6571 23.3913 11.2147 23.3474 10.8531 23.0847C10.4913 22.8219 10.3128 22.4147 10.3648 21.9705L10.8036 18.217C10.8458 17.8559 10.7394 17.5284 10.493 17.2611L7.93159 14.4822C7.62856 14.1534 7.53364 13.7191 7.67184 13.2939C7.81004 12.8687 8.14215 12.5732 8.58046 12.4854L12.2859 11.7429C12.6424 11.6714 12.9211 11.469 13.0992 11.152L14.9505 7.85723C15.1695 7.46742 15.5532 7.24297 16.0003 7.24297C16.4474 7.24297 16.831 7.46757 17.0501 7.85731H17.0498ZM16 2.49881C23.4565 2.49881 29.5013 8.54356 29.5013 16.0001C29.5013 23.4566 23.4565 29.5013 16 29.5013C8.54348 29.5013 2.49873 23.4566 2.49873 16.0001C2.49873 8.54356 8.54348 2.49881 16 2.49881Z" fill="#FFF1E1"/>
</svg>