<svg xmlns="http://www.w3.org/2000/svg" space="preserve" width="155.948" height="52.522" style="shape-rendering:geometricPrecision;text-rendering:geometricPrecision;image-rendering:optimizeQuality;fill-rule:evenodd;clip-rule:evenodd" viewBox="0 0 10482 3530.27" id="svg-40004278_7326"><path d="M10482 3187.9v230.19c0 47.38-38.64 86.02-86.02 86.02H9237.71c-47.38 0-86.02-38.64-86.02-86.02V1987.36c0-47.38 38.64-86.02 86.02-86.02h1158.27c47.38 0 86.02 38.64 86.02 86.02v230.19c0 47.38-38.64 86.02-86.02 86.02h-449.55c-47.38 0-86.02 38.64-86.02 86.02v26.55c0 47.38 38.64 86.02 86.02 86.02h260.65c47.38 0 86.02 38.64 86.02 86.02v230.19c0 47.38-38.64 86.02-86.02 86.02h-260.65c-47.38 0-86.02 38.64-86.02 86.02v25.48c0 47.38 38.64 86.02 86.02 86.02h449.55c47.38 0 86.02 38.64 86.02 86.02zM8935.66 2015.02l-485.78 1430.73c-12.07 35.51-43.95 58.35-81.45 58.35h-564.68c-37.5 0-69.38-22.84-81.45-58.33l-486.39-1430.73c-9.22-27.11-5.18-54.49 11.51-77.79 16.67-23.27 41.28-35.92 69.91-35.92h525.63c37.62 0 69.63 23.02 81.57 58.71l79.44 237.4c11.94 35.69 43.95 58.73 81.57 58.71 37.65 0 69.63-23.02 81.57-58.71l79.44-237.4c11.94-35.69 43.92-58.71 81.57-58.71h526.07c28.63 0 53.25 12.65 69.91 35.92 16.67 23.27 20.73 50.66 11.53 77.76zm-6341.68 307.29v123.77c0 28.02 12.09 52.13 34.55 68.9 22.46 16.79 49 21.52 75.88 13.57 67.07-19.84 100.7-66 100.7-138.6 0-42.3-12.91-79.21-39.07-110.76-14.76-18.24-35.13-31.35-61.15-39.2-26.9-8.13-53.58-3.48-76.16 13.26-22.58 16.77-34.75 40.95-34.75 69.07zm-622.7-420.97h960.75c181.38 0 324.05 45.88 427.65 137.31 103.6 91.4 155.22 205.39 155.22 342.7 0 123.82-40.82 225.54-122.24 305.15-31.12 30.43-34.75 78.6-8.51 113.33 124.71 165.23 206.31 366.76 244.69 604.54 4.17 25.76-2.51 49.61-19.43 69.48-16.92 19.87-39.38 30.26-65.49 30.26h-558.63a85.81 85.81 0 0 1-85.64-77.94c-15.37-163.09-43.44-286.63-84.49-370.52-22.58-46.16-51.39-81.32-86.15-105.43-26.98-18.7-59.83-20.73-88.91-5.51-29.09 15.24-46.11 43.39-46.11 76.21v397.17c0 47.38-38.64 86.02-86.02 86.02h-536.69c-47.38 0-86.02-38.64-86.02-86.02V1987.36c0-47.38 38.64-86.02 86.02-86.02zm-359.42 267.78-245.63 345.7c-23.57 33.18-65.8 45.27-103.34 29.54-119.02-49.79-230.39-74.84-333.71-74.84-80.3 0-144.83 20.81-193.58 62.75-48.75 41.59-73.14 96.79-73.14 165.25 0 99.79 50.4 161.44 150.87 184.74 26.42 6.12 51.7.43 72.93-16.46 21.26-16.87 32.52-40.21 32.52-67.35v-70.47c0-47.38 38.64-86.02 86.02-86.02h538.11c47.38 0 86.02 38.64 86.02 86.02v696.86c0 45.75-35.69 83.45-81.39 85.92-242.74 13.11-409.94 19.51-501.5 19.51-392.16 0-664.62-83.17-817.32-249.85C76.37 3113.72.01 2919.43.01 2697.52c0-152.7 35.49-292.53 106.47-420.13 70.98-127.27 173.51-226.22 307.57-296.11 134.44-69.91 292.88-105.05 476.43-105.05 128.7 0 262.4 18.65 400.06 56.3 103.6 27.97 200.36 64.65 290.04 110 23.14 11.71 38.46 30.92 44.69 56.12 6.22 25.18 1.65 49.31-13.39 70.47zM9195.59 446.07v123.77c0 28.02 12.09 52.13 34.55 68.9 22.46 16.79 49 21.52 75.88 13.57 67.07-19.84 100.7-66 100.7-138.6 0-42.3-12.91-79.21-39.07-110.76-14.76-18.24-35.13-31.35-61.15-39.2-26.9-8.13-53.58-3.48-76.16 13.26-22.58 16.77-34.75 40.95-34.75 69.07zM8572.89 25.1h960.75c181.38 0 324.05 45.88 427.65 137.31 103.6 91.4 155.22 205.39 155.22 342.7 0 123.82-40.82 225.54-122.24 305.15-31.12 30.43-34.75 78.6-8.51 113.33 124.71 165.23 206.31 366.76 244.69 604.54 4.17 25.76-2.51 49.61-19.43 69.48-16.92 19.87-39.38 30.26-65.49 30.26H9586.9a85.81 85.81 0 0 1-85.64-77.94c-15.37-163.09-43.44-286.63-84.49-370.52-22.58-46.16-51.39-81.32-86.15-105.43-26.98-18.7-59.83-20.73-88.91-5.51-29.09 15.24-46.11 43.39-46.11 76.21v397.17c0 47.38-38.64 86.02-86.02 86.02h-536.69c-47.38 0-86.02-38.64-86.02-86.02V111.12c0-47.38 38.64-86.02 86.02-86.02zm-302.56 1286.56v230.19c0 47.38-38.64 86.02-86.02 86.02H7026.04c-47.38 0-86.02-38.64-86.02-86.02V111.12c0-47.38 38.64-86.02 86.02-86.02h1158.27c47.38 0 86.02 38.64 86.02 86.02v230.19c0 47.38-38.64 86.02-86.02 86.02h-449.55c-47.38 0-86.02 38.64-86.02 86.02v26.55c0 47.38 38.64 86.02 86.02 86.02h260.65c47.38 0 86.02 38.64 86.02 86.02v230.19c0 47.38-38.64 86.02-86.02 86.02h-260.65c-47.38 0-86.02 38.64-86.02 86.02v25.48c0 47.38 38.64 86.02 86.02 86.02h449.55c47.38 0 86.02 38.64 86.02 86.02zM6666.63 292.88 6421 638.58c-23.57 33.18-65.8 45.27-103.34 29.54-119.02-49.79-230.39-74.84-333.71-74.84-80.3 0-144.83 20.81-193.58 62.75-48.75 41.59-73.14 96.79-73.14 165.25 0 99.79 50.4 161.44 150.87 184.74 26.42 6.12 51.7.43 72.93-16.46 21.26-16.87 32.52-40.21 32.52-67.35v-70.47c0-47.38 38.64-86.02 86.02-86.02h538.11c47.38 0 86.02 38.64 86.02 86.02v696.86c0 45.75-35.69 83.45-81.39 85.92-242.74 13.11-409.94 19.51-501.5 19.51-392.16 0-664.62-83.17-817.32-249.85-152.35-166.7-228.71-360.99-228.71-582.9 0-152.7 35.49-292.53 106.47-420.13 70.98-127.27 173.51-226.22 307.57-296.11C5603.26 35.13 5761.7-.01 5945.25-.01c128.7 0 262.4 18.65 400.06 56.3 103.6 27.97 200.36 64.65 290.04 110 23.14 11.71 38.46 30.92 44.69 56.12 6.22 25.18 1.65 49.31-13.39 70.47zM4704.91 1640.41h-406.24c-29.32 0-54.54-13.34-71.06-37.55l-161.82-237.25c-21.62-31.68-59.78-45.04-96.43-33.71-36.63 11.3-60.64 43.85-60.64 82.18v127.76c0 47.38-38.64 86.02-86.02 86.02h-536.69c-47.38 0-86.02-38.64-86.02-86.02V111.11c0-47.38 38.64-86.02 86.02-86.02h375.7c29.16 0 54.24 13.16 70.8 37.17l191.44 277.51c21.72 31.5 59.85 44.66 96.38 33.28 36.56-11.38 60.44-43.87 60.44-82.13V111.11c0-47.38 38.64-86.02 86.02-86.02h538.11c47.38 0 86.02 38.64 86.02 86.02v1443.28c0 47.38-38.64 86.02-86.02 86.02zm-2531.23-98.57V111.11c0-47.38 38.64-86.02 86.02-86.02h537.04c47.38 0 86.02 38.64 86.02 86.02v1430.73c0 47.38-38.64 86.02-86.02 86.02H2259.7c-47.38 0-86.02-38.64-86.02-86.02zM1896.34 292.88l-245.63 345.7c-23.57 33.18-65.8 45.27-103.34 29.54-119.02-49.79-230.39-74.84-333.71-74.84-80.3 0-144.83 20.81-193.58 62.75-48.75 41.59-73.14 96.79-73.14 165.25 0 99.79 50.4 161.44 150.87 184.74 26.42 6.12 51.7.43 72.93-16.46 21.26-16.87 32.52-40.21 32.52-67.35v-70.47c0-47.38 38.64-86.02 86.02-86.02h538.11c47.38 0 86.02 38.64 86.02 86.02v696.86c0 45.75-35.69 83.45-81.39 85.92-242.74 13.11-409.94 19.51-501.5 19.51-392.16 0-664.62-83.17-817.32-249.85-152.35-166.7-228.71-360.99-228.71-582.9 0-152.7 35.49-292.53 106.47-420.13 70.98-127.27 173.51-226.22 307.57-296.11C832.97 35.13 991.41-.01 1174.96-.01c128.7 0 262.4 18.65 400.06 56.3 103.6 27.97 200.36 64.65 290.04 110 23.14 11.71 38.46 30.92 44.69 56.12 6.22 25.18 1.65 49.31-13.39 70.47z" style="fill:#ffe5d6;fill-rule:nonzero"/><path d="M4536.27 1853.2c463.12 0 838.54 375.42 838.54 838.54 0 463.12-375.42 838.54-838.54 838.54-463.12 0-838.54-375.42-838.54-838.54 0-463.12 375.42-838.54 838.54-838.54zm346.87 897.85 162.71 170.87c23.96 25.15 30.48 59.98 17.25 92.09-55.36 134.41-142.75 215.15-236.46 215.15-163.17 0-295.45-240.6-295.45-537.42 0-296.82 132.28-537.42 295.45-537.42 93.72 0 181.11 80.73 236.46 215.15 13.24 32.11 6.71 66.94-17.25 92.09l-162.71 170.87c-31.65 33.23-31.65 85.41 0 118.64zM6418.3 1853.2c463.12 0 838.54 375.42 838.54 838.54 0 463.12-375.42 838.54-838.54 838.54-463.12 0-838.54-375.42-838.54-838.54 0-463.12 375.42-838.54 838.54-838.54zm-229.45 897.85 162.71 170.87c23.96 25.15 30.48 59.98 17.25 92.09-55.36 134.41-142.75 215.15-236.46 215.15-163.17 0-295.45-240.6-295.45-537.42 0-296.82 132.28-537.42 295.45-537.42 93.72 0 181.11 80.73 236.46 215.15 13.24 32.11 6.71 66.94-17.25 92.09l-162.71 170.87c-31.65 33.23-31.65 85.41 0 118.64z" style="fill:#ffe5d6"/></svg>