<svg width="53" height="25" viewBox="0 0 53 25" fill="none" xmlns="http://www.w3.org/2000/svg" id="svg1405410380_1285">
<path fill-rule="evenodd" clip-rule="evenodd" d="M12.4759 0C19.3658 0 24.9518 5.58599 24.9518 12.4759C24.9518 19.3658 19.3658 24.9518 12.4759 24.9518C5.58599 24.9518 0 19.3658 0 12.4759C0 5.58599 5.58599 0 12.4759 0ZM40.4753 0C47.3652 0 52.9512 5.58599 52.9512 12.4759C52.9512 19.3658 47.3652 24.9518 40.4753 24.9518C33.5854 24.9518 27.9994 19.3658 27.9994 12.4759C27.9994 5.58599 33.5854 0 40.4753 0ZM37.0625 13.358L39.4826 15.899C39.8401 16.2719 39.9352 16.7914 39.7398 17.2698C38.9168 19.2706 37.6154 20.4717 36.2215 20.4717C33.7937 20.4717 31.8263 16.8917 31.8263 12.4759C31.8263 8.06008 33.7937 4.48011 36.2215 4.48011C37.6154 4.48011 38.9168 5.68115 39.7398 7.68202C39.9378 8.16038 39.8401 8.67732 39.4826 9.0528L37.0625 11.5938C36.5918 12.0876 36.5918 12.8642 37.0625 13.358ZM17.6375 13.358L20.0576 15.899C20.4151 16.2719 20.5103 16.7914 20.3148 17.2698C19.4918 19.2706 18.1905 20.4717 16.7966 20.4717C14.3688 20.4717 12.4013 16.8917 12.4013 12.4759C12.4013 8.06008 14.3688 4.48011 16.7966 4.48011C18.1905 4.48011 19.4918 5.68115 20.3148 7.68202C20.5128 8.16038 20.4151 8.67732 20.0576 9.0528L17.6375 11.5938C17.1669 12.0876 17.1669 12.8642 17.6375 13.358Z" fill="#FFF1E1"/>
</svg>